<svg xmlns="http://www.w3.org/2000/svg" viewBox="0 0 120 120">
  <!-- 안테나 -->
  <line x1="60" y1="14" x2="60" y2="24" stroke="#c7d2fe" stroke-width="3" stroke-linecap="round"/>
  <circle cx="60" cy="11" r="5" fill="#adb5bd"/>
  <!-- 귀 -->
  <rect x="8" y="48" width="8" height="16" rx="4" fill="#4263eb"/>
  <rect x="104" y="48" width="8" height="16" rx="4" fill="#4263eb"/>
  <!-- 팔 -->
  
    <ellipse cx="18" cy="78" rx="8" ry="12" fill="#eef2ff" stroke="#c7d2fe" stroke-width="2" transform="rotate(18 18 78)"/>
    <ellipse cx="102" cy="78" rx="8" ry="12" fill="#eef2ff" stroke="#c7d2fe" stroke-width="2" transform="rotate(-18 102 78)"/>
  <!-- 머리+몸 셸 -->
  <rect x="16" y="24" width="88" height="72" rx="30" fill="#eef2ff" stroke="#c7d2fe" stroke-width="3"/>
  <!-- 얼굴 스크린 -->
  <rect x="28" y="38" width="64" height="40" rx="18" fill="#1e2430"/>
  
    <line x1="40" y1="55" x2="52" y2="55" stroke="#8ecbff" stroke-width="3.5" stroke-linecap="round"/>
    <line x1="68" y1="55" x2="80" y2="55" stroke="#8ecbff" stroke-width="3.5" stroke-linecap="round"/>
    <ellipse cx="60" cy="68" rx="4" ry="5" fill="#8ecbff" opacity=".8"/>
  <!-- 다리 -->
  <rect x="40" y="96" width="12" height="12" rx="5" fill="#eef2ff" stroke="#c7d2fe" stroke-width="2"/>
  <rect x="68" y="96" width="12" height="12" rx="5" fill="#eef2ff" stroke="#c7d2fe" stroke-width="2"/>
  
    <text x="96" y="26" font-family="Arial, sans-serif" font-weight="bold" font-size="14" fill="#4263eb">z</text>
    <text x="104" y="18" font-family="Arial, sans-serif" font-weight="bold" font-size="11" fill="#4263eb" opacity=".7">z</text>
    <text x="110" y="11" font-family="Arial, sans-serif" font-weight="bold" font-size="8" fill="#4263eb" opacity=".5">z</text>
</svg>
